<svg width="642" height="513" viewBox="0 0 642 513" fill="none" xmlns="http://www.w3.org/2000/svg">
<path d="M207.86 245.15C171.98 255.6 147.91 286.35 150.33 319.25C161.73 306.53 179.14 295.55 200.23 288.33L207.86 245.15V245.15ZM96.8104 295L65.0804 115.49C64.7904 113.87 65.3604 112.87 65.3204 112.84C123.08 80.78 188.44 63.83 254.33 63.83C255.94 63.83 257.56 64 259.18 64.02C273.13 50.55 290.91 41.19 310.77 38.02C329.66 35 348.82 33.47 367.95 32.7C357.96 18.75 343.47 8.47 326.18 5.7C302.27 1.89 278.24 0 254.32 0C177.66 0 102.02 19.42 34.2004 57.06C10.0304 70.48 -2.91955 98.48 2.05045 126.58L33.7804 306.09C48.0104 386.61 170.11 448.17 238.23 448.17C241.82 448.17 244.98 447.71 248.24 447.37C234.72 430.29 219.3 406.89 208.74 379.79C161.13 366.81 102.68 328.17 96.8104 295V295ZM194.36 157.54C193.63 153.42 192.13 149.67 190.29 146.14C182.04 155.05 169.62 161.89 154.97 164.46C140.32 167.04 126.3 164.86 115.49 159.29C114.97 163.23 114.85 167.27 115.58 171.39C119.42 193.09 140.16 207.58 161.92 203.76C183.67 199.94 198.2 179.24 194.36 157.54V157.54ZM607.8 120.9C518.82 71.52 416.37 53.49 315.82 69.55C288.51 73.91 266.74 95.81 261.78 123.91L230.05 303.42C214.66 390.47 325.33 499.69 388.36 510.77C451.39 521.86 592.83 456.98 608.22 369.93L639.95 190.42C644.92 162.31 631.97 134.31 607.8 120.9V120.9ZM334.56 217.7C338.4 196 359.14 181.51 380.9 185.34C402.66 189.17 417.18 209.86 413.35 231.56C412.62 235.68 411.12 239.43 409.28 242.96C401.03 234.05 388.61 227.21 373.96 224.64C359.31 222.06 345.29 224.24 334.48 229.81C333.95 225.86 333.83 221.82 334.56 217.7ZM405.03 416.46C349.35 406.67 311.51 357.19 315.99 303.56C336.59 329.1 372.2 349.73 415.48 357.34C458.76 364.95 499.3 357.71 527.41 340.74C513.23 392.68 460.7 426.25 405.03 416.46V416.46ZM535.33 265.12C527.08 256.21 514.65 249.37 500 246.8C485.35 244.22 471.33 246.4 460.52 251.97C460 248.03 459.88 243.99 460.61 239.87C464.45 218.17 485.19 203.68 506.95 207.5C528.7 211.33 543.23 232.02 539.4 253.72C538.67 257.85 537.17 261.6 535.33 265.12Z" fill="#fff"/>
</svg>
